<svg preserveAspectRatio="xMidYMid meet" viewBox="0 0 295.000000 300.000000" height="300.000000pt" width="295.000000pt" version="1.0" xmlns="http://www.w3.org/2000/svg"><g stroke="none" transform="translate(0.000000,300.000000) scale(0.100000,-0.100000)" fill="#005078"><path d="M1354 2951 c-58 -30 -98 -71 -117 -124 -6 -17 -11 -15 -48 16 -67 58 -160 72 -239 36 -81 -36 -132 -103 -146 -188 -4 -23 -8 -41 -9 -41 -1 0 -19 7 -38 15 -53 22 -124 19 -182 -9 -112 -52 -163 -166 -129 -288 5 -15 -2 -18 -39 -18 -136 0 -240 -101 -241 -235 0 -55 8 -82 52 -167 2 -5 -4 -8 -13 -8 -55 0 -152 -89 -173 -159 -29 -96 5 -202 83 -261 l33 -25 -39 -33 c-47 -40 -66 -75 -78 -139 -11 -56 8 -139 41 -183 27 -37 89 -79 128 -87 17 -3 30 -6 30 -7 0 0 -11 -23 -25 -50 -30 -58 -34 -146 -9 -204 35 -84 123 -145 214 -146 l55 -1 0 -86 c0 -81 2 -90 30 -130 67 -95 191 -134 289 -91 l46 21 0 -33 c0 -75 70 -166 155 -202 74 -30 184 -7 247 53 l26 25 21 -40 c40 -78 141 -130 233 -119 83 10 178 80 194 143 l6 24 32 -27 c78 -66 174 -80 261 -39 81 38 135 112 135 184 0 39 6 43 45 26 84 -35 215 -1 268 68 53 69 72 158 47 222 -10 26 -9 26 47 26 131 0 233 104 233 237 0 46 -23 119 -46 144 -13 15 -11 18 28 32 140 54 200 204 134 334 -24 49 -76 103 -99 103 -6 0 8 14 30 30 78 57 112 176 78 267 -30 78 -86 128 -177 157 -16 5 -16 9 7 41 101 149 -24 361 -211 359 -51 -1 -52 -1 -43 23 26 70 -8 182 -73 239 -73 64 -178 80 -256 40 l-30 -15 -6 40 c-14 89 -74 161 -160 194 -76 29 -184 6 -239 -51 -27 -29 -34 -30 -42 -3 -11 33 -65 89 -108 111 -22 11 -66 22 -96 25 -48 4 -65 0 -117 -26z m351 -177 c325 -53 638 -256 831 -539 79 -116 118 -194 160 -321 121 -371 69 -777 -140 -1098 -223 -344 -566 -549 -979 -588 -365 -34 -724 94 -995 356 -237 228 -361 485 -391 807 -56 595 308 1152 874 1338 211 69 407 83 640 45z"></path><path d="M1535 2494 c-66 -12 -95 -13 -167 -3 -103 14 -161 2 -202 -40 -39 -40 -99 -180 -158 -364 -47 -151 -55 -168 -73 -164 -11 2 -60 17 -110 32 -107 32 -198 38 -203 14 -4 -24 52 -75 118 -109 131 -66 313 -100 581 -107 331 -10 571 29 765 122 116 56 196 145 130 145 -20 0 -168 -48 -228 -75 -12 -5 -18 -3 -18 6 0 25 -102 295 -145 384 -24 50 -58 107 -77 128 -28 33 -40 38 -83 42 -27 2 -86 -3 -130 -11z"></path><path d="M425 1473 c-26 -76 -49 -145 -52 -153 -4 -10 -2 -12 5 -5 5 6 17 35 27 65 10 30 21 59 25 64 5 4 25 -22 46 -58 21 -36 41 -66 44 -66 3 0 23 34 43 76 21 42 40 74 43 71 3 -2 15 -38 27 -78 l23 -74 56 -3 57 -3 -46 128 c-25 70 -48 136 -50 146 -3 9 -8 17 -12 17 -4 0 -25 -34 -47 -75 -21 -41 -42 -75 -46 -75 -4 0 -26 36 -48 80 -22 44 -42 80 -44 80 -3 0 -25 -62 -51 -137z"></path><path d="M886 1490 c-32 -78 -54 -120 -63 -120 -12 0 -13 -3 -4 -14 8 -10 9 -16 1 -21 -5 -3 -10 -12 -9 -18 0 -7 7 -2 16 11 13 18 25 22 74 22 48 0 60 -4 69 -20 9 -16 21 -20 61 -20 28 0 49 4 47 9 -15 39 -134 290 -138 291 -3 0 -27 -54 -54 -120z m40 -65 c13 -31 24 -58 24 -60 0 -3 -22 -5 -50 -5 -27 0 -50 4 -50 9 0 12 42 111 47 111 2 0 15 -25 29 -55z"></path><path d="M1172 1458 c2 -131 3 -141 7 -66 l6 87 113 -85 112 -84 -2 152 c-2 131 -3 141 -7 66 l-6 -88 -109 85 c-60 47 -111 85 -113 85 -2 0 -2 -69 -1 -152z"></path><path d="M1530 1461 l0 -151 68 1 c37 1 59 3 50 6 -16 4 -18 20 -18 145 l0 140 38 -7 c55 -10 88 -34 108 -76 32 -72 3 -147 -69 -180 -23 -10 -35 -19 -27 -19 26 0 79 38 101 72 25 41 21 117 -8 156 -30 40 -69 55 -160 60 l-83 5 0 -152z"></path><path d="M1976 1600 c-58 -18 -96 -73 -96 -140 0 -88 59 -145 151 -145 63 0 99 19 130 68 29 46 23 136 -12 173 -44 48 -106 64 -173 44z m119 -20 c50 -24 75 -65 75 -120 0 -23 -8 -55 -17 -71 -19 -31 -85 -69 -121 -69 -22 0 -22 3 -22 140 0 137 0 140 22 140 12 0 40 -9 63 -20z"></path><path d="M2282 1458 c1 -100 3 -123 5 -65 2 48 6 87 8 87 3 0 54 -38 115 -85 61 -47 112 -85 115 -85 3 0 5 65 5 145 0 80 -3 145 -7 145 -5 0 -7 -36 -5 -80 2 -44 1 -80 -3 -80 -3 0 -55 38 -116 85 -60 47 -111 85 -114 85 -3 0 -4 -69 -3 -152z"></path><path d="M1562 1059 c-19 -6 -52 -29 -75 -52 l-42 -42 -30 34 c-38 43 -81 61 -147 61 -78 -1 -122 -26 -242 -139 -116 -108 -154 -128 -223 -115 -45 8 -93 53 -93 86 0 57 58 90 111 64 32 -16 38 -7 13 18 -9 9 -32 16 -56 16 -32 0 -47 -7 -74 -34 -30 -30 -34 -40 -34 -89 0 -127 121 -205 335 -214 179 -8 306 33 396 128 l46 48 35 -42 c140 -168 586 -169 714 -2 61 80 36 192 -48 217 -33 10 -45 9 -66 -3 -32 -18 -45 -47 -14 -30 60 32 115 -1 110 -65 -4 -51 -50 -84 -118 -84 -56 0 -94 24 -221 138 -114 104 -182 128 -277 101z"></path></g></svg>